<svg xmlns="http://www.w3.org/2000/svg" data-name="Layer 1" viewBox="0 0 128 160" x="0px" y="0px"><title>1</title><path d="M54.6994,44.96721V13.65754a3.9149,3.9149,0,0,0-2.30519-3.54509A20.11189,20.11189,0,0,0,44.02167,8.3112,20.46113,20.46113,0,0,0,28.0051,16.15483a4.42216,4.42216,0,0,0-.57631,4.5131,4.46877,4.46877,0,0,0,3.68981,2.73428,16.89618,16.89618,0,0,0,1.70147.08731A16.48815,16.48815,0,0,0,35.25,23.30988a12.592,12.592,0,0,1,8.84653-10.07147,3.71446,3.71446,0,0,1,1.04281-.15218,3.6399,3.6399,0,0,1,1.04037,7.12763,5.34273,5.34273,0,0,0-3.79207,4.59043l-.035.35427.22451.27689a5.36587,5.36587,0,0,0,3.16844,1.88608,3.64057,3.64057,0,0,1-1.36215,7.15256,12.63011,12.63011,0,0,1-7.17253-4.11641,24.08653,24.08653,0,0,1-4.45823.41667,23.7199,23.7199,0,0,1-9.17336-1.8287c-.37422-.15717-.67608-.29187-.95553-.4241a4.51475,4.51475,0,0,0-1.91848-.42413,4.40211,4.40211,0,0,0-3.33551,1.50437,12.62536,12.62536,0,0,0-2.31018,12.61866,4.86145,4.86145,0,0,1-.3917,4.21871,34.24824,34.24824,0,0,0,0,35.12172,4.86145,4.86145,0,0,1,.3917,4.21871,12.62536,12.62536,0,0,0,2.31018,12.61866,4.40209,4.40209,0,0,0,3.33551,1.50434,4.50375,4.50375,0,0,0,1.926-.4291c.27445-.12973.57631-.26443.943-.41661a23.7188,23.7188,0,0,1,9.17836-1.8312,24.08911,24.08911,0,0,1,4.45823.41664,12.63205,12.63205,0,0,1,7.17-4.11641,3.64058,3.64058,0,0,1,1.36221,7.15259,5.35855,5.35855,0,0,0-3.16594,1.88855l-.22451.27442.0374.35677a5.33558,5.33558,0,0,0,3.79214,4.58793,3.63957,3.63957,0,1,1-2.08068,6.97543A12.59,12.59,0,0,1,35.25,104.69008a16.49228,16.49228,0,0,0-2.42993-.17962,16.77193,16.77193,0,0,0-1.699.08731,4.469,4.469,0,0,0-3.69231,2.73428,4.42217,4.42217,0,0,0,.57631,4.5131,20.46116,20.46116,0,0,0,16.01657,7.84362,20.11187,20.11187,0,0,0,8.37254-1.80123,3.91491,3.91491,0,0,0,2.30519-3.54509V83.03529a21.30015,21.30015,0,0,1-9.373-9.03367,17.57811,17.57811,0,0,0-6.30679,3.08356,13.13475,13.13475,0,0,1-3.08359,13.77874,3.61185,3.61185,0,0,1-2.57215,1.06528,3.63867,3.63867,0,0,1-2.53719-6.24947,5.89511,5.89511,0,0,0,1.23991-6.40162l-.17712-.4291-.43409-.17962a5.88086,5.88086,0,0,0-6.40162,1.23741A3.79292,3.79292,0,0,1,22.41429,80.992a3.57313,3.57313,0,0,1-2.41744-.92806,3.63689,3.63689,0,0,1-.1223-5.26651,13.15606,13.15606,0,0,1,14.06568-2.9763,25.0674,25.0674,0,0,1,9.096-4.74261,21.22,21.22,0,0,1,0-6.15717,25.06694,25.06694,0,0,1-9.096-4.74261,13.156,13.156,0,0,1-14.07067-2.98127,3.63668,3.63668,0,0,1,.12474-5.259,3.5746,3.5746,0,0,1,2.42-.93055,3.79459,3.79459,0,0,1,2.64195,1.08773,5.881,5.881,0,0,0,6.39918,1.23491l.43409-.17962.17962-.43159a5.89738,5.89738,0,0,0-1.2424-6.39915,3.63855,3.63855,0,0,1,2.53719-6.24944,3.61185,3.61185,0,0,1,2.57215,1.06528,13.13856,13.13856,0,0,1,3.08359,13.77874,17.57754,17.57754,0,0,0,6.30679,3.08353A21.28131,21.28131,0,0,1,54.6994,44.96721Z"/><path d="M43.36057,68.805a23.23579,23.23579,0,0,0-9.096,5.03947l-.68857-.28688a11.40628,11.40628,0,0,0-12.469,2.47731,1.89008,1.89008,0,0,0,.06487,2.73678,1.944,1.944,0,0,0,2.65693-.10976A7.62576,7.62576,0,0,1,32.124,77.05525l1.10024.45654.45651,1.09775a7.62938,7.62938,0,0,1-1.60913,8.29519,1.94723,1.94723,0,0,0-.10976,2.65943,1.893,1.893,0,0,0,2.73928.06487A11.40077,11.40077,0,0,0,37.176,77.16l-.252-.61121a19.45674,19.45674,0,0,1,7.6291-4.14388A20.99833,20.99833,0,0,1,43.36057,68.805Z"/><path d="M56.44576,114.34246a5.663,5.663,0,0,1-3.32808,5.13428,21.84538,21.84538,0,0,1-9.096,1.95841,22.0936,22.0936,0,0,1-17.3937-8.51473,6.267,6.267,0,0,1,4.31351-10.059,18.28459,18.28459,0,0,1,5.89024.34925l.05488.54388a10.8542,10.8542,0,0,0,7.71139,9.333,1.8928,1.8928,0,0,0,1.08276-3.62744,7.08144,7.08144,0,0,1-5.02954-6.08727l-.10726-1.07277.67858-.83578A7.08579,7.08579,0,0,1,45.42627,98.962a1.89434,1.89434,0,0,0-.36673-3.75218,1.91118,1.91118,0,0,0-.3543.03243,10.85067,10.85067,0,0,0-6.4191,3.8345l-.40163.494A22.22258,22.22258,0,0,0,24.25043,100.666c-.29687.12474-.58874.252-.87817.3892a6.211,6.211,0,0,1-7.32218-1.51436,14.36407,14.36407,0,0,1-2.627-14.36751,3.15056,3.15056,0,0,0-.252-2.71434,35.98951,35.98951,0,0,1,0-36.918,3.15056,3.15056,0,0,0,.252-2.71434,14.36407,14.36407,0,0,1,2.627-14.36751,6.211,6.211,0,0,1,7.32218-1.51436c.28944.13723.58131.26446.87817.3892a22.22235,22.22235,0,0,0,13.63409,1.09519l.40163.494a10.85086,10.85086,0,0,0,6.4191,3.83453,1.89622,1.89622,0,0,0,2.24531-1.8636A1.88141,1.88141,0,0,0,45.42627,29.038a7.08583,7.08583,0,0,1-4.20375-2.50229l-.67858-.83575.10726-1.07277a7.08137,7.08137,0,0,1,5.02954-6.08727A1.8928,1.8928,0,0,0,44.598,14.91243a10.8542,10.8542,0,0,0-7.71139,9.333l-.05488.54388a18.28461,18.28461,0,0,1-5.89024.34928,6.267,6.267,0,0,1-4.31351-10.059,22.09363,22.09363,0,0,1,17.3937-8.51472,21.84515,21.84515,0,0,1,9.096,1.95842,5.663,5.663,0,0,1,3.32808,5.13428V44.20378a20.955,20.955,0,0,1,6.30685-1.35466V13.65754a11.97949,11.97949,0,0,0-7.02782-10.8773A28.12349,28.12349,0,0,0,44.02167.258,28.42425,28.42425,0,0,0,17.12284,19.64754,20.69537,20.69537,0,0,0,7.03135,43.56513a42.31378,42.31378,0,0,0,0,40.8697,20.69541,20.69541,0,0,0,10.09149,23.91762A28.42423,28.42423,0,0,0,44.02167,127.742a28.12373,28.12373,0,0,0,11.70312-2.52223,11.97949,11.97949,0,0,0,7.02782-10.8773V85.15087a20.95408,20.95408,0,0,1-6.30685-1.35469Z"/><path d="M36.924,51.45117l.252-.61121a11.40077,11.40077,0,0,0-2.47482-12.469,1.893,1.893,0,0,0-2.73928.06487,1.94723,1.94723,0,0,0,.10976,2.65943,7.62938,7.62938,0,0,1,1.60913,8.29519l-.45651,1.09772-1.10024.45654a7.62575,7.62575,0,0,1-8.29519-1.60663,1.944,1.944,0,0,0-2.65693-.10976,1.89008,1.89008,0,0,0-.06487,2.73678,11.40628,11.40628,0,0,0,12.469,2.47731l.68857-.28688a23.23579,23.23579,0,0,0,9.096,5.03947,20.99745,20.99745,0,0,1,1.19252-3.6A19.45674,19.45674,0,0,1,36.924,51.45117Z"/><path d="M82.86067,13.08624a3.71446,3.71446,0,0,1,1.04281.15218A12.592,12.592,0,0,1,92.75,23.30988a16.48815,16.48815,0,0,0,2.42993.17965,16.89618,16.89618,0,0,0,1.70147-.08731,4.46877,4.46877,0,0,0,3.68981-2.73428,4.42216,4.42216,0,0,0-.57631-4.5131A20.46113,20.46113,0,0,0,83.97833,8.3112a20.11189,20.11189,0,0,0-8.37254,1.80125,3.9149,3.9149,0,0,0-2.30519,3.54509V44.96721a21.28131,21.28131,0,0,1,9.373,9.03114,17.57754,17.57754,0,0,0,6.30679-3.08353,13.13856,13.13856,0,0,1,3.08359-13.77874,3.61185,3.61185,0,0,1,2.57215-1.06528,3.63855,3.63855,0,0,1,2.53719,6.24944,5.89738,5.89738,0,0,0-1.2424,6.39915l.17962.43159.43409.17962a5.881,5.881,0,0,0,6.39918-1.23491,3.79459,3.79459,0,0,1,2.64195-1.08773,3.5746,3.5746,0,0,1,2.42.93055,3.63668,3.63668,0,0,1,.12474,5.259A13.156,13.156,0,0,1,94.05977,56.1788a25.06694,25.06694,0,0,1-9.096,4.74261,21.22,21.22,0,0,1,0,6.15717,25.0674,25.0674,0,0,1,9.096,4.74261,13.15606,13.15606,0,0,1,14.06568,2.9763,3.63689,3.63689,0,0,1-.1223,5.26651,3.57313,3.57313,0,0,1-2.41744.92806,3.79293,3.79293,0,0,1-2.63951-1.08523,5.88086,5.88086,0,0,0-6.40162-1.23741l-.43409.17962-.17712.4291a5.89511,5.89511,0,0,0,1.23991,6.40162,3.63867,3.63867,0,0,1-2.53719,6.24947,3.61185,3.61185,0,0,1-2.57215-1.06528,13.13475,13.13475,0,0,1-3.08359-13.77874,17.57811,17.57811,0,0,0-6.30679-3.08356,21.30015,21.30015,0,0,1-9.373,9.03367v31.30717a3.91491,3.91491,0,0,0,2.30519,3.54509,20.11187,20.11187,0,0,0,8.37254,1.80123,20.46116,20.46116,0,0,0,16.01657-7.84362,4.42217,4.42217,0,0,0,.57631-4.5131,4.469,4.469,0,0,0-3.69231-2.73428,16.77193,16.77193,0,0,0-1.699-.08731,16.49228,16.49228,0,0,0-2.42993.17962,12.59,12.59,0,0,1-8.85152,10.07148,3.63957,3.63957,0,0,1-2.08068-6.97543,5.33558,5.33558,0,0,0,3.79214-4.58793l.0374-.35677-.22451-.27442a5.35855,5.35855,0,0,0-3.16594-1.88855,3.64059,3.64059,0,0,1,1.36221-7.15259,12.63205,12.63205,0,0,1,7.17,4.11641,24.08911,24.08911,0,0,1,4.45823-.41664,23.7188,23.7188,0,0,1,9.17836,1.8312c.36673.15218.66859.28688.943.41661a4.50375,4.50375,0,0,0,1.926.4291,4.40209,4.40209,0,0,0,3.33551-1.50434,12.62536,12.62536,0,0,0,2.31018-12.61866,4.86145,4.86145,0,0,1,.3917-4.21871,34.24824,34.24824,0,0,0,0-35.12172,4.86145,4.86145,0,0,1-.3917-4.21871,12.62536,12.62536,0,0,0-2.31018-12.61866,4.40211,4.40211,0,0,0-3.33551-1.50437,4.51475,4.51475,0,0,0-1.91848.42413c-.27945.13223-.58131.26693-.95553.4241a23.7199,23.7199,0,0,1-9.17336,1.8287,24.08653,24.08653,0,0,1-4.45823-.41667,12.63011,12.63011,0,0,1-7.17253,4.11641,3.60337,3.60337,0,0,1-.67608.06237,3.64037,3.64037,0,0,1-.68607-7.21492,5.36587,5.36587,0,0,0,3.16844-1.88608l.22451-.27689-.035-.35427a5.34273,5.34273,0,0,0-3.79207-4.59043,3.64018,3.64018,0,0,1,1.04037-7.12763Z"/><path d="M84.63943,59.195a23.23579,23.23579,0,0,0,9.096-5.03947l.68857.28688a11.40628,11.40628,0,0,0,12.469-2.47731,1.89008,1.89008,0,0,0-.06487-2.73678,1.944,1.944,0,0,0-2.65693.10976A7.62575,7.62575,0,0,1,95.876,50.94472l-1.10024-.45654-.45651-1.09772a7.62938,7.62938,0,0,1,1.60913-8.29519,1.94723,1.94723,0,0,0,.10976-2.65943,1.893,1.893,0,0,0-2.73928-.06487A11.40077,11.40077,0,0,0,90.824,50.84l.252.61121a19.45674,19.45674,0,0,1-7.6291,4.14388A20.99745,20.99745,0,0,1,84.63943,59.195Z"/><path d="M126.23013,64a42.19836,42.19836,0,0,0-5.26148-20.43487,20.69537,20.69537,0,0,0-10.09149-23.91759A28.42425,28.42425,0,0,0,83.97833.258,28.12349,28.12349,0,0,0,72.27521,2.78025a11.97949,11.97949,0,0,0-7.02782,10.8773V42.84913a20.955,20.955,0,0,1,6.30685,1.35466V13.65754a5.663,5.663,0,0,1,3.32808-5.13428,21.84515,21.84515,0,0,1,9.096-1.95842,22.09363,22.09363,0,0,1,17.3937,8.51472,6.267,6.267,0,0,1-4.31351,10.059,18.28461,18.28461,0,0,1-5.89024-.34928l-.05488-.54388a10.8542,10.8542,0,0,0-7.71139-9.333,1.8928,1.8928,0,0,0-1.08276,3.62744,7.08137,7.08137,0,0,1,5.02954,6.08727l.10726,1.07277-.67858.83575A7.08583,7.08583,0,0,1,82.57373,29.038a1.89432,1.89432,0,0,0,.36673,3.75215,1.91111,1.91111,0,0,0,.3543-.0324,10.85086,10.85086,0,0,0,6.4191-3.83453l.40163-.494A22.22235,22.22235,0,0,0,103.74957,27.334c.29687-.12474.58874-.252.87817-.3892a6.211,6.211,0,0,1,7.32218,1.51436,14.36407,14.36407,0,0,1,2.627,14.36751,3.15056,3.15056,0,0,0,.252,2.71434,35.98951,35.98951,0,0,1,0,36.918,3.15056,3.15056,0,0,0-.252,2.71434,14.36407,14.36407,0,0,1-2.627,14.36751,6.211,6.211,0,0,1-7.32218,1.51436c-.28944-.13723-.58131-.26446-.87817-.3892a22.22258,22.22258,0,0,0-13.63409-1.09522l-.40163-.494a10.85067,10.85067,0,0,0-6.4191-3.8345,1.89608,1.89608,0,0,0-2.24531,1.8636A1.88141,1.88141,0,0,0,82.57373,98.962a7.08579,7.08579,0,0,1,4.20375,2.50226l.67858.83578-.10726,1.07277a7.08144,7.08144,0,0,1-5.02954,6.08727,1.8928,1.8928,0,0,0,1.08276,3.62744,10.8542,10.8542,0,0,0,7.71139-9.333l.05488-.54388a18.28459,18.28459,0,0,1,5.89024-.34925,6.267,6.267,0,0,1,4.31351,10.059,22.0936,22.0936,0,0,1-17.3937,8.51473,21.84538,21.84538,0,0,1-9.096-1.95841,5.663,5.663,0,0,1-3.32808-5.13428V83.79618a20.95408,20.95408,0,0,1-6.30685,1.35469v29.19159a11.97949,11.97949,0,0,0,7.02782,10.8773A28.12373,28.12373,0,0,0,83.97833,127.742a28.42423,28.42423,0,0,0,26.89883-19.38953,20.69541,20.69541,0,0,0,10.09149-23.91762A42.19815,42.19815,0,0,0,126.23013,64Z"/><path d="M91.076,76.54883l-.252.61121a11.40077,11.40077,0,0,0,2.47482,12.469,1.893,1.893,0,0,0,2.73928-.06487,1.94723,1.94723,0,0,0-.10976-2.65943,7.62938,7.62938,0,0,1-1.60913-8.29519l.45651-1.09775,1.10024-.45654a7.62576,7.62576,0,0,1,8.29519,1.60666,1.944,1.944,0,0,0,2.65693.10976,1.89008,1.89008,0,0,0,.06487-2.73678,11.40628,11.40628,0,0,0-12.469-2.47731l-.68857.28688a23.23579,23.23579,0,0,0-9.096-5.03947,20.99833,20.99833,0,0,1-1.19252,3.6A19.45674,19.45674,0,0,1,91.076,76.54883Z"/><path d="M83.44691,64A19.44691,19.44691,0,1,0,64,83.44691,19.46789,19.46789,0,0,0,83.44691,64ZM63.05946,52.45409h1.88108a1.57474,1.57474,0,0,1,1.56924,1.709L65.56924,65.1476a1.57485,1.57485,0,0,1-3.13847,0L61.49022,54.163A1.57474,1.57474,0,0,1,63.05946,52.45409ZM64,75.54591a2.8029,2.8029,0,1,1,2.80415-2.80415A2.80342,2.80342,0,0,1,64,75.54591Z"/></svg>